<svg width="928" height="928" xmlns="http://www.w3.org/2000/svg" xmlns:xlink="http://www.w3.org/1999/xlink" xml:space="preserve" overflow="hidden"><defs><clipPath id="clip0"><rect x="1090" y="371" width="928" height="928"/></clipPath><clipPath id="clip1"><rect x="1291" y="401" width="527" height="868"/></clipPath><clipPath id="clip2"><rect x="1291" y="401" width="527" height="868"/></clipPath><clipPath id="clip3"><rect x="1291" y="401" width="527" height="868"/></clipPath><clipPath id="clip4"><rect x="1293" y="407" width="521" height="620"/></clipPath><clipPath id="clip5"><rect x="1307" y="407" width="494" height="606"/></clipPath></defs><g clip-path="url(#clip0)" transform="translate(-1090 -371)"><rect x="1090" y="371" width="928" height="928" fill="#CBCBCB"/><g clip-path="url(#clip1)"><g clip-path="url(#clip2)"><g clip-path="url(#clip3)"><g clip-path="url(#clip4)"><path d="M857.871 308.365C854.023 305.523 780.901 252.125 688.616 229.726 675.505 207.059 638.415 172.16 614.844 165.637 613.761 165.331 612.64 165.178 611.518 165.178 610.397 165.178 609.276 165.331 608.193 165.637 584.622 172.16 547.532 207.059 534.421 229.726 442.136 252.125 369.013 305.523 365.165 308.365 356.68 314.634 351.621 324.686 351.621 335.236 351.621 358.897 352.934 568.911 398.65 656.521 419.826 697.089 460.445 730.624 519.424 756.234 562.987 775.129 601.045 782.71 605.237 783.513 607.301 783.908 609.416 784.099 611.518 784.099 613.621 784.099 615.736 783.908 617.787 783.513 621.992 782.71 660.05 775.129 703.612 756.234 762.592 730.624 803.211 697.089 824.387 656.521 870.09 568.911 871.415 358.897 871.415 335.236 871.415 324.686 866.344 314.634 857.871 308.365" fill="#5E26A6" transform="matrix(1.00007 0 0 1 942.099 242.274)"/></g><path d="M575.461 523.272 574.722 525.897C574.301 527.375 573.932 528.917 573.639 530.509L573.294 532.268 573.052 534.077C572.849 535.593 572.696 537.16 572.556 538.868L572.505 539.607 572.403 541.429C572.275 544.079 572.237 546.767 572.275 549.405L572.326 552.615 569.205 551.851C557.903 549.073 547.697 548.5 541.136 548.5L540.167 548.5 539.9 548.436C538.753 548.194 537.657 547.927 536.638 547.659L536.281 547.557C535.874 547.43 535.479 547.328 535.084 547.201L533.274 546.653 533.427 541.747 533.427 541.301 533.618 540.843C534.052 539.823 534.549 538.689 535.096 537.479L535.606 536.332 535.555 536.332 537.173 533.032C538.358 530.637 539.505 528.496 540.588 526.687L541.454 525.222 544.002 521.73C545.289 520.202 546.487 519.182 547.659 518.596L548.411 518.227ZM506.441 414.729C495.05 416.602 485.876 420.374 479.073 425.967 489.151 428.222 511.639 434.835 516.481 449.487L517.641 452.991 513.958 452.736C513.932 452.736 511.397 452.558 507.46 452.558 498.197 452.558 476.282 453.59 464.892 462.802L505.842 502.644 502.81 504.237C502.313 504.491 452.634 530.739 444.76 561.496 442.48 570.428 444.009 578.99 449.309 586.953 476.958 628.413 509.766 634.86 510.085 634.924L512.2 635.306 509.078 715.615 505.511 713.525C495.649 707.741 490.272 703.485 490.043 703.307L489.1 702.568 489.24 687.979 489.546 655.603C488.871 655.616 488.183 655.616 487.52 655.616 468.102 655.616 452.927 650.24 442.429 639.651 427.649 624.731 427.407 604.74 427.419 602.511L432.376 602.562C432.363 603.81 432.452 628.579 453.361 642.047 440.135 624.031 436.453 591.591 435.434 576.646L420.157 600.587 418.067 597.338C417.634 596.662 407.365 580.239 414.665 547.226 420.667 520.023 445.104 510.977 454.456 508.48 441.855 491.738 414.296 491.101 414.003 491.088L411.098 491.037 411.607 488.183C411.646 487.954 415.799 464.688 423.992 444.353 424.629 442.76 425.279 441.104 425.941 439.409L426.005 439.256C426.005 439.256 426.094 439.091 426.107 439.091L428.426 432.988C433.713 419.087 439.001 404.09 441.243 397.681 430.885 398.229 420.144 405.67 420.042 405.759L416.385 402.638C425.623 383.742 456.023 365 466.229 359.088L465.987 357.432C469.172 356.96 472.396 356.731 475.581 356.731 522.546 356.731 558.591 408.129 575.893 438.785 581.245 448.252 589.807 455.654 600.026 459.617L601.605 460.241 601.605 465.694 598.254 464.433C587.921 460.534 579.015 453.272 573.154 443.958L556.017 416.717C552.437 415.94 539.364 413.379 524.278 413.379 519.488 413.379 514.863 413.633 510.569 414.156L509.116 414.322 509.103 414.296ZM479.213 662.063 480.895 662.649 480.538 700.058 476.677 697.306C476.015 696.834 475.352 696.35 474.69 695.878L473.696 695.152C473.377 694.923 472.218 694.044 472.218 694.044 470.077 692.438 468.217 690.986 466.522 689.635 466.28 689.444 464.802 688.221 464.802 688.221 464.204 687.737 463.617 687.253 463.031 686.756 462.815 686.577 461.604 685.533 461.604 685.533 460.929 684.959 460.267 684.386 459.617 683.812 459.387 683.621 459.171 683.418 458.941 683.214L458.215 682.551C457.565 681.965 456.916 681.379 456.278 680.793 456.049 680.589 454.788 679.379 454.788 679.379 454.189 678.818 453.59 678.257 453.017 677.684L452.876 677.556C451.793 676.486 450.812 675.505 449.831 674.511 449.589 674.256 448.621 673.224 448.621 673.224L448.137 672.715C447.665 672.218 447.207 671.734 446.761 671.249L446.366 670.816C444.403 668.663 442.569 666.535 440.887 664.484 440.581 664.114 440.301 663.758 440.02 663.401L435 657.056 442.148 658.903C447.92 660.394 453.45 660.598 458.1 660.598 459.617 660.598 461.107 660.572 462.56 660.547 463.961 660.534 465.337 660.509 466.675 660.509 470.842 660.509 475.25 660.7 479.213 662.063ZM828.375 569.09C828.197 570.784 827.955 572.556 827.636 574.671L822.731 574.582C822.603 573.575 822.463 572.581 822.31 571.575L821.189 565.663 820.807 564.287 821.164 565.739 822.208 571.498C823.393 579.653 823.483 587.68 822.501 595.464L822.463 595.706 822.196 596.509 817.38 595.617C817.43 593.744 817.43 591.884 817.367 590.088L817.035 584.8 816.857 583.513 816.984 584.749 817.265 590.011C817.43 597.299 816.806 604.383 815.392 611.136L814.831 613.442 814.691 613.71C809.403 623.788 803.746 631.331 799.949 635.88 796.674 639.791 794.458 641.881 794.368 641.97L787.921 648.022 790.291 639.498C790.329 639.345 793.515 627.649 793.222 616.143 789.629 628.796 780.633 646.825 758.259 653.424L757.47 651.781C755.571 652.545 753.532 653.157 751.226 653.654 747.429 654.469 743.416 654.89 739.288 654.89 738.867 654.89 738.46 654.877 738.039 654.877 730.789 654.724 722.89 653.437 713.181 650.825L711.422 650.354 710.836 635.306 712.951 634.924C713.04 634.911 721.59 633.267 733.516 626.272 701.867 619.787 640.568 594.903 610.078 573.294L609.084 572.568 609.058 572.606 606.625 570.746C605.605 569.981 604.637 569.204 603.707 568.452 595.527 561.725 585.576 556.603 574.147 553.188L572.427 552.679 572.376 550.895C572.261 546.881 572.313 543.314 572.529 539.963 572.899 534.331 573.676 529.579 574.899 525.438L575.523 523.297 582.365 524.571C583.869 522.252 587.296 518.634 593.922 518.341 594.253 518.315 594.61 518.315 594.992 518.315 599.044 518.315 605.249 519.156 612.04 520.634 620.182 522.392 636.49 526.686 654.214 535.605 676.485 546.804 742.294 555.749 757.074 557.647 756.705 553.978 755.622 547.059 752.449 538.777 751.939 537.465 748.142 536.994 745.097 536.624 740.192 536.038 734.637 535.35 731.795 531.247 729.515 527.934 729.668 522.991 729.833 517.754 729.935 514.62 730.05 511.384 729.578 508.708 729.528 508.389 729.464 508.084 729.387 507.79L728.865 509.205 726.304 507.676C724.928 506.86 723.756 506.185 722.8 505.65L719.768 503.93 722.38 501.636C724.061 500.158 725.82 498.68 727.527 497.253 728.521 496.425 729.515 495.597 730.509 494.743 732.165 493.342 733.554 492.106 734.777 490.934L732.241 488.003 758.144 462.801C746.754 453.589 724.851 452.557 715.589 452.557L710.67 452.57 713.066 448.76C713.652 447.843 714.251 446.926 714.862 446.034 717.232 442.708 719.564 439.816 722.023 437.179L723.972 435.153 726.024 433.165 726.329 432.898C726.954 432.35 727.489 431.878 727.922 431.33L728.33 430.808 728.954 430.566C734.662 428.298 740.192 426.82 743.963 425.966 737.236 420.437 728.189 416.691 716.964 414.792L713.537 414.219 713.499 414.27 712.059 414.104C707.867 413.62 703.395 413.378 698.744 413.378 683.646 413.378 670.599 415.939 667.006 416.716L649.882 443.957C644.849 451.946 637.675 458.38 629.164 462.546L625.597 464.292 625.597 458.571 626.973 457.883C635.509 453.64 642.479 447.028 647.142 438.784 664.445 408.128 700.49 356.73 747.454 356.73 750.64 356.73 753.863 356.959 757.049 357.431 798.878 363.623 815.964 392.062 822.934 414.818L818.398 416.754C818.398 416.754 818.016 416.041 817.926 415.888 816.499 413.391 814.958 410.957 813.301 408.638 814.932 411.033 816.461 413.48 817.837 415.926 822.22 423.724 825.482 432.044 827.559 440.657L827.699 441.256 827.699 441.46C827.941 445.409 827.865 447.779 827.852 447.881L827.508 457.386 823.176 448.913C819.825 442.364 810.83 427.215 801.783 419.264 807.046 429.024 815.62 446.25 821.571 464.521L817.213 466.254 818.78 469.822 820.832 475.313 822.641 480.932C824.909 488.743 826.272 496.578 826.756 504.3L827.024 512.352 823.456 510.849C820.628 509.651 810.371 505.752 797.298 505.752 795.948 505.752 794.585 505.803 793.234 505.88 802.293 511.333 817.633 522.838 824.845 541.441 828.209 550.117 829.394 559.419 828.374 569.089ZM733.644 672.473 729.668 673.021 729.719 673.365 730.127 676.69C730.598 680.92 730.828 685.278 730.841 690.043 730.814 693.063 730.662 696.095 730.382 699.077L730.369 699.166 730.598 699.025 729.477 705.893 727.973 706.938 723.59 709.919 724.278 702.911 724.317 702.885 724.482 699.254C724.52 698.388 724.546 697.509 724.546 696.617 724.495 697.712 724.431 698.795 724.367 699.853 724.329 700.452 724.278 701.025 724.227 701.586L724.087 703.115 724.189 703.064C724.189 703.064 723.45 708.683 723.424 708.887L723.258 710.033 722.29 710.645C720.838 711.55 719.258 712.518 717.525 713.524L713.957 715.614 712.072 667.223 713.562 666.522C720.85 663.082 726.418 659.986 729.795 657.998L733.491 655.82ZM396.331 403.096C393.846 409.416 391.871 416.22 390.457 423.317L385.564 422.973C382.634 373.995 382.57 336.842 382.57 335.274L382.557 334.026 383.564 333.249C383.564 333.249 384.328 332.688 385.781 331.656 386.265 331.312 386.825 330.917 387.462 330.484L388.928 329.464C389.985 328.751 391.183 327.935 392.521 327.031 393.196 326.585 393.91 326.113 394.648 325.629 417.557 310.505 464.496 282.576 521.399 265.337L525.807 264 524.495 268.408C519.641 284.755 512.799 307.205 505.256 331.592 503.969 335.784 503.79 340.231 504.746 344.499L508.938 347.723 506.517 351.978C497.05 348.232 487.341 346.334 477.633 346.334 473.976 346.334 470.268 346.614 466.624 347.162 433.025 352.208 408.728 371.562 396.33 403.096ZM623.062 341.403 622.807 341.696 613.99 347.238 613.99 399.287 610.423 397.515C608.677 396.649 567.969 376.085 566.223 345.327L571.027 344.333C571.103 344.55 572.81 348.971 577.028 350.768 576.302 346.945 574.352 340.689 569.166 337.122L567.739 336.141 568.173 334.472C568.249 334.128 570.44 326.024 580.086 323.705L581.538 323.348 588.457 331.223C589.387 332.28 590.737 332.892 592.139 332.892L592.279 335.363 592.305 332.892C594.586 332.866 596.523 331.299 597.058 329.069 597.72 326.266 599.198 323.782 601.339 321.858L605.225 318.367 609.022 321.463 606.359 326.011C605.544 327.413 605.531 329.095 606.346 330.509 607.149 331.923 608.601 332.764 610.219 332.777L612.717 332.777C614.347 332.764 615.825 331.911 616.641 330.471 617.456 329.044 617.456 327.336 616.615 325.909L614.016 321.463 617.812 318.367 621.699 321.858C627.394 326.967 627.993 335.555 623.062 341.403ZM705.422 346.194C705.09 345.251 704.797 344.308 704.504 343.365 704.313 342.779 704.135 342.18 703.944 341.607 703.803 341.148 703.638 340.677 703.485 340.218L702.134 336.09 688.603 346.436 682.322 351.239C682.322 351.239 681.353 352.093 680.907 352.501L680.894 352.424 677.008 356.094C660.215 371.957 646.327 390.355 635.714 410.779 627.585 426.426 617.608 437.804 613.799 441.868 613.608 441.702 613.404 441.511 613.187 441.32 608.256 436.81 595.783 424.527 586.571 407.772 575.142 386.991 560.005 368.224 541.581 351.991L541.415 351.851C541.135 350.143 541.224 348.385 541.683 346.729 545.926 330.942 559.967 278.601 562.133 267.847 562.426 266.42 563.369 263.707 566.248 258.916 569.574 253.386 574.492 246.773 580.098 240.301 586.214 233.242 592.546 227.012 598.433 222.285 603.746 218.016 608.536 215.124 612.27 213.939L613.99 213.391 613.99 188.1C629.751 195.451 645.945 211.875 658.533 225.687 660.381 227.725 662.126 229.649 663.719 231.42 667.936 236.122 670.982 239.511 672.969 241.205 673.109 241.32 673.836 242.046 675.326 245.295 677.123 249.22 679.391 255.476 682.079 263.872 689.52 287.138 698.057 320.316 701.395 333.491L701.421 333.592 701.459 333.694C702.453 336.561 703.307 339.135 704.059 341.543 704.059 341.543 704.772 343.823 704.938 344.371L705.791 347.264ZM512.225 343.416 512.429 344.244 514.175 345.569C514.646 345.939 515.118 346.308 515.589 346.678L520.596 350.615 520.278 345.136C520.24 344.384 520.227 343.645 520.214 342.906 520.265 344.04 520.329 345.187 520.444 346.347 520.558 347.532 520.749 348.806 521.004 350.233L521.157 351.125 521.858 351.711C523.158 352.768 524.432 353.851 525.693 354.934L530.79 359.304 529.758 352.679C529.656 352.042 529.566 351.405 529.49 350.755 529.643 351.647 529.987 353.609 529.987 353.609 530.331 355.406 530.726 357.228 531.197 359.203L531.376 359.942 531.936 360.464C548.22 375.32 562.07 391.718 573.116 409.225 585.896 429.484 603.148 444.289 609.977 449.717 610.69 450.277 611.289 450.749 611.786 451.131 612.767 451.883 613.315 452.278 613.315 452.278L614.895 453.399 616.36 452.15C616.411 452.112 617.367 451.297 619.01 449.768 624.311 444.811 637.855 431.267 648.978 412.627 657.948 397.579 668.854 383.335 681.405 370.262L682.156 369.421C682.156 369.421 682.08 368.083 682.067 368.045 681.978 366.593 681.825 365.153 681.659 363.751 681.609 363.267 681.558 362.783 681.507 362.273 681.621 362.757 681.71 363.254 681.787 363.738L681.838 364.184 682.551 369.013 686.03 365.586C687.393 364.235 688.769 362.91 690.158 361.598L691.05 360.757 690.922 359.534C690.858 358.859 690.782 358.183 690.68 357.482L690.425 355.737C690.476 355.903 690.514 356.056 690.553 356.221L691.496 360.298 695.114 357.049C695.713 356.514 696.312 355.966 696.911 355.431L697.943 354.539 697.739 353.201C697.522 351.774 697.28 350.36 697.038 348.933 696.923 348.271 696.822 347.608 696.719 346.945 696.872 347.595 697.025 348.258 697.153 348.908 697.204 349.137 697.242 349.366 697.28 349.608L698.147 354.323 701.408 351.596C702.479 350.704 703.549 349.812 704.645 348.933L705.995 347.837 705.982 347.824 708.823 345.62 709.919 344.754 710.594 344.244 710.811 343.416C711.639 340.256 711.563 336.931 710.594 333.822 707.345 323.31 696.197 287.15 689.113 263.005 686.628 254.545 684.87 248.328 683.889 244.531 683.647 243.613 683.456 242.823 683.303 242.161 682.092 236.924 676.957 229.585 672.855 224.348 659.438 207.237 631.764 180.684 612.181 175.269L611.518 175.078 610.856 175.269C591.272 180.684 563.585 207.237 550.182 224.348 546.079 229.585 540.944 236.924 539.734 242.161 539.581 242.811 539.39 243.613 539.148 244.531 538.167 248.34 536.396 254.558 533.924 263.005 526.84 287.138 515.691 323.297 512.429 333.822 511.474 336.931 511.397 340.256 512.225 343.416" fill="#8768DC" transform="matrix(1.00007 0 0 1 942.099 242.274)"/><path d="M655.374 300.542 653.667 300.007C653.488 299.943 651.832 299.446 649.449 299.446 644.926 299.446 636.733 301.268 632.631 313.449L631.713 316.175 634.555 316.672C634.631 316.685 636.402 316.991 638.836 316.991 642.747 316.991 648.175 316.226 651.794 312.531 654.265 310.008 655.489 306.568 655.412 302.313ZM593.668 313.449 594.585 316.175 591.744 316.672C591.668 316.685 589.896 316.991 587.463 316.991 583.551 316.991 578.123 316.226 574.505 312.531 572.033 310.008 570.81 306.568 570.899 302.313L570.925 300.542 572.633 300.007C572.811 299.943 574.467 299.446 576.85 299.446 581.373 299.446 589.566 301.268 593.668 313.449" fill="#FFFFFF" transform="matrix(1.00007 0 0 1 942.099 242.274)"/><path d="M603.045 189.463C603.045 189.463 576.187 204.039 567.179 215.162 564.732 218.182 562.554 221.342 560.681 224.336 555.648 232.401 552.794 239.32 552.794 239.32 552.794 239.32 559.126 232.35 567.854 223.227 578.353 212.283 592.317 198.255 603.045 189.463ZM583.462 284.972C581.971 288.157 600.293 301.434 600.676 300.121 601.045 298.809 598.803 285.163 601.975 286.284 603.275 286.743 605.084 292.132 606.779 298.388 607.428 300.796 609.48 302.007 611.518 302.007 613.557 302.007 615.608 300.796 616.258 298.388 617.953 292.132 619.762 286.743 621.049 286.284 624.234 285.163 621.992 298.809 622.361 300.121 622.743 301.434 641.065 288.157 639.575 284.972 638.339 282.36 620.106 264.892 613.71 258.814 613.098 258.241 612.308 257.947 611.518 257.947 610.728 257.947 609.938 258.241 609.327 258.814 602.931 264.892 584.698 282.36 583.462 284.972ZM754.756 537.886C752.628 532.357 738.167 536.09 733.835 529.847 730.764 525.387 733.287 515.487 732.013 508.276 731.567 505.74 730.662 503.549 728.866 502.032L727.566 505.562 724.814 513.092 715.882 537.466C723.31 537.606 730.522 539.224 737.402 541.505 740.919 542.715 744.359 544.079 747.71 545.646 751.048 547.226 754.336 548.933 757.432 550.946 750.551 548.322 743.633 545.977 736.612 544.181 729.617 542.371 722.47 541.034 715.385 541.034 713.283 541.007 711.245 540.83 709.257 540.6 709.18 540.613 709.117 540.626 709.04 540.626 708.875 540.639 708.709 540.626 708.556 540.588 708.187 540.512 707.804 540.448 707.435 540.372 706.339 540.219 705.256 540.066 704.16 539.9 700.504 539.327 696.872 538.69 693.267 537.989 686.029 536.6 678.843 535.071 671.67 533.491 657.336 530.306 643.053 526.93 628.808 523.375 623.036 521.948 617.277 520.483 611.518 519.017 603.339 516.94 595.171 514.838 587.017 512.698 582.736 514.558 579.793 518.877 578.047 523.719 577.767 524.509 577.512 525.324 577.27 526.14L583.666 527.337C583.666 527.337 585.972 521.171 594.025 520.814 597.337 520.661 603.555 521.323 611.518 523.056 622.947 525.528 637.957 530.204 653.093 537.823 678.792 550.743 759.725 560.477 759.725 560.477 759.725 560.477 759.725 550.845 754.756 537.887ZM538.574 526.903C538.574 526.93 538.561 526.954 538.561 526.98 538.217 528.177 537.822 529.35 537.517 530.56L536.816 534.128C537.619 534.077 538.409 534.051 539.173 534.115 539.249 534.115 539.326 534.128 539.39 534.128 540.434 532.025 541.556 529.885 542.715 527.948 541.963 527.821 541.199 527.681 540.46 527.489 539.823 527.336 539.198 527.133 538.574 526.903ZM535.899 541.811C536.319 540.804 536.816 539.683 537.351 538.485 536.995 538.358 536.638 538.205 536.294 538.052 536.166 539.301 535.975 540.549 535.899 541.811ZM566.949 521.539C564.083 521.055 561.203 520.622 558.323 520.227 555.418 519.87 552.513 519.552 549.583 519.348 548.13 519.233 546.665 519.22 545.213 518.991 544.474 518.876 543.747 518.685 543.021 518.481 542.906 518.443 542.792 518.405 542.677 518.38 542.269 518.979 541.875 519.603 541.518 520.253 541.059 521.081 540.588 521.884 540.193 522.75 540.498 522.737 540.817 522.724 541.11 522.737 542.728 522.788 544.321 523.081 545.901 523.323 546.895 522.151 547.863 521.259 548.768 520.813L572.339 525.221C572.568 524.38 572.836 523.552 573.116 522.724 572.466 522.661 571.855 522.495 571.23 522.367 569.816 522.049 568.376 521.807 566.949 521.539ZM557.139 512.073C555.074 511.78 552.998 511.461 550.934 511.168 550.653 511.283 550.296 511.435 550.003 511.588 549.507 511.818 549.022 512.149 548.538 512.417L547.149 513.436C546.882 513.665 546.614 513.907 546.347 514.149 547.544 514.111 548.729 514.213 549.927 514.277 552.959 514.468 556.005 514.774 559.024 515.233 562.057 515.653 565.051 516.379 567.994 517.258 569.459 517.73 570.925 518.201 572.352 518.826 573.014 519.055 573.677 519.323 574.276 519.743 574.836 518.469 575.499 517.207 576.263 515.997L561.381 512.939ZM403.173 428.553 405.619 424.68 408.18 420.896C409.072 419.673 409.964 418.424 410.894 417.226L413.748 413.659 416.717 410.18C417.749 409.072 418.717 407.9 419.889 406.906 421.1 405.95 422.412 405.097 424.056 404.574 423.699 406.282 423.011 407.658 422.221 408.932 421.457 410.244 420.488 411.353 419.584 412.525L416.972 416.118 414.462 419.787C413.672 421.036 412.856 422.259 412.028 423.495L409.696 427.254 407.479 431.076 405.836 434.019C411.773 425.088 420.106 414.691 428.031 412.245 428.031 412.245 403.861 452.367 398.267 487.609 400.331 482.449 402.561 477.365 404.982 472.371L407.581 467.147 410.333 462.025 413.213 456.966C414.219 455.297 415.213 453.641 416.245 451.985L419.418 447.117 422.692 442.314C423.839 440.747 424.897 439.129 426.196 437.663 427.509 436.249 428.948 434.924 430.732 433.867 437.753 415.417 444.697 395.286 444.697 395.286 432.427 394.012 418.615 403.733 418.615 403.733 429.318 381.806 470.498 359.521 470.727 359.394 469.275 359.508 467.822 359.661 466.344 359.878 410.741 368.121 400.077 416.717 398.089 437.906 398.981 436.096 399.911 434.3 400.892 432.529ZM429.904 602.421C429.904 602.421 429.904 602.472 429.904 602.523 429.904 602.523 429.904 602.536 429.904 602.536 429.878 604.842 430.197 641.588 468.243 650.966 438.899 640.327 437.536 568.746 437.536 568.746L420.144 596C420.144 596 409.913 580.149 417.074 547.748 424.234 515.36 458.495 510.098 458.495 510.098 446.226 489.126 414.041 488.616 414.041 488.616 414.041 488.616 418.106 465.605 426.285 445.283 426.923 443.677 427.585 442.008 428.248 440.314 427.483 441.69 426.629 443.015 425.789 444.34L422.845 449.258 420.017 454.227C419.125 455.922 418.195 457.578 417.265 459.247L414.589 464.293C412.882 467.695 411.187 471.109 409.531 474.537 406.294 481.43 403.3 488.45 400.65 495.586L398.701 500.95C398.242 502.326 397.758 503.689 397.248 505.052 397.337 506.39 397.465 507.702 397.643 509.002 397.643 509.002 415.876 500.249 437.842 504.402 437.842 504.402 421.482 511.525 409.403 526.878L408.435 529.49C406.46 535.198 405.135 541.11 404.37 547.111L403.924 551.622 403.67 556.158 403.644 560.209 403.644 560.694C403.72 562.197 403.797 563.713 403.835 565.229L404.23 569.765 404.867 574.289C405.147 575.779 405.529 577.245 405.631 578.799 405.81 580.341 405.873 581.908 405.491 583.666 405.351 583.539 405.224 583.399 405.096 583.258 405.937 585.526 406.854 587.769 407.912 589.948L409.785 593.604 411.862 597.159C411.964 597.312 412.066 597.465 412.155 597.618 412.83 598.599 413.518 599.567 414.066 600.676 414.741 601.886 415.327 603.198 415.582 604.868 415.021 604.689 414.525 604.46 414.04 604.205 413.161 603.746 412.371 603.186 411.632 602.587 410.575 601.58 409.721 600.395 408.804 599.274L406.268 595.732 404 591.999C402.013 588.47 400.356 584.749 399.044 580.914 404.561 606.932 417.595 625.445 424.998 634.287 428.209 638.135 430.362 640.161 430.362 640.161 430.362 640.161 423.826 616.692 429.903 602.421ZM744.932 695.292C747.124 693.712 749.303 692.12 751.443 690.463 763.968 680.831 775.333 669.835 784.52 657.362 772.403 660.942 756.03 664.573 744.627 664.408ZM448.201 669.147C446.34 667.109 444.531 665.045 442.798 662.917 444.531 665.045 446.34 667.109 448.201 669.147ZM795.592 308.632C794.751 308.161 793.885 307.677 793.018 307.193 791.171 306.173 789.272 305.141 787.336 304.096 784.787 302.733 782.175 301.357 779.474 299.968 777.079 298.732 774.607 297.484 772.097 296.235 772.097 296.235 772.084 296.235 772.084 296.235 761.802 291.139 750.589 285.991 738.663 281.137 735.682 279.926 732.65 278.716 729.579 277.544 723.45 275.199 717.143 272.931 710.684 270.803 707.473 269.733 704.211 268.701 700.911 267.707 706.262 285.698 713.461 309.257 720.138 330.866 721.654 335.759 721.781 340.97 720.482 345.939L717.054 348.564C716.596 348.92 716.15 349.29 715.691 349.647 725.03 345.964 734.93 343.862 745.404 343.862 749.188 343.862 753.01 344.142 756.769 344.716 791.298 349.901 816.283 369.778 829.012 402.192 831.841 409.403 833.739 416.475 835 422.833 837.995 372.81 837.995 335.236 837.995 335.236 837.995 335.236 821.902 323.349 795.592 308.632ZM441.524 661.299C441.945 661.834 442.365 662.369 442.785 662.904 442.365 662.369 441.945 661.834 441.524 661.299" fill="#CAB3F0" transform="matrix(1.00007 0 0 1 942.099 242.274)"/><g clip-path="url(#clip5)"><path d="M702.631 640.849C702.823 641.346 703.268 641.511 702.517 643.257 701 644.391 700.695 643.932 700.134 643.83 699.624 643.652 699.127 643.448 698.681 643.168 697.802 642.62 697.089 641.855 696.35 641.142 694.923 639.664 693.572 638.109 692.375 636.44 691.177 634.771 690.157 632.962 689.342 631.089L688.769 629.662 688.272 628.209C688.132 627.713 687.915 627.254 687.941 626.693 688.004 626.12 688.195 625.508 688.82 624.744 690.769 625.024 691.177 625.827 691.648 626.642L693.203 628.961C694.26 630.49 695.343 631.968 696.452 633.421 697.56 634.873 698.732 636.275 700.006 637.6L700.975 638.568C701.306 638.887 701.612 639.218 701.879 639.6 702.172 639.957 702.402 640.39 702.631 640.849ZM570.568 335.083C570.568 335.083 572.352 328.101 580.659 326.113L586.596 332.854C588.023 334.484 590.075 335.389 592.228 335.364 592.266 335.364 592.304 335.364 592.343 335.364 595.758 335.325 598.675 332.956 599.465 329.643 599.988 327.413 601.173 325.336 602.995 323.693L606.881 320.214 604.218 324.763C601.517 329.401 604.842 335.223 610.219 335.249L612.716 335.249C618.131 335.223 621.482 329.337 618.756 324.661L616.156 320.214 620.042 323.693C624.706 327.884 625.203 335.02 621.164 339.81L611.519 345.875 611.519 345.862 602.192 340.014C600.434 339.046 598.968 337.886 598.102 336.586 598.102 336.586 596.93 346.869 611.519 349.111L611.519 395.286C611.505 395.286 570.377 374.912 568.695 345.187 568.695 345.187 571.689 353.405 579.92 353.966 579.92 353.966 579.538 341.262 570.568 335.083ZM591.323 314.239C591.323 314.239 573.091 317.411 573.371 302.364 573.371 302.364 585.998 298.388 591.323 314.239ZM583.462 284.972C584.698 282.36 602.931 264.892 609.327 258.814 609.938 258.241 610.728 257.947 611.518 257.947 612.308 257.947 613.098 258.241 613.71 258.814 620.106 264.892 638.339 282.36 639.575 284.972 641.065 288.157 622.743 301.434 622.361 300.121 621.992 298.809 624.234 285.163 621.049 286.284 619.762 286.743 617.953 292.132 616.258 298.388 615.608 300.796 613.557 302.007 611.518 302.007 609.48 302.007 607.428 300.796 606.779 298.388 605.084 292.132 603.275 286.743 601.975 286.284 598.803 285.163 601.045 298.809 600.676 300.121 600.293 301.434 581.971 288.157 583.462 284.972ZM652.928 302.364C653.208 317.411 634.975 314.239 634.975 314.239 640.314 298.388 652.928 302.364 652.928 302.364ZM608.677 412.397C609.569 412.767 610.537 412.933 611.518 412.933 612.487 412.933 613.468 412.767 614.36 412.397 651.908 397.363 680.309 347.761 665.006 304.899 661.604 295.381 657.209 287.214 652.392 280.258 646.939 273.798 641.116 267.312 635.625 261.388 635.714 261.439 635.803 261.49 635.892 261.528 641.881 264.56 647.372 267.771 650.226 270.536 658.47 278.537 672.09 304.861 672.09 304.861 672.09 304.861 672.09 304.542 671.836 301.332 671.695 299.484 671.479 296.681 671.122 292.4 670.167 280.703 661.732 261.91 661.732 261.91L669.224 266.51C669.224 266.51 668.192 263.21 666.599 259.081 664.624 253.959 661.808 247.538 659.043 244.454 658.062 243.371 656.393 241.792 654.342 239.97 645.971 232.516 631.242 220.87 631.242 220.87 631.242 220.87 631.242 220.87 641.206 224.132 651.182 227.394 663.07 239.32 663.07 239.32 663.07 239.32 662.878 238.135 655.973 228.158 654.928 226.642 653.17 224.756 650.953 222.641 638.53 210.817 611.518 191.909 611.518 191.909L611.518 245.334C611.518 245.334 605.262 247.844 596.777 253.832 584.469 262.522 567.446 278.55 558.043 304.899 542.728 347.761 571.128 397.363 608.677 412.397ZM751.443 690.463C749.303 692.12 747.124 693.712 744.932 695.292L744.627 664.408C756.03 664.573 772.403 660.942 784.52 657.362 775.333 669.835 763.968 680.831 751.443 690.463ZM475.161 693.152C474.677 692.795 474.193 692.426 473.709 692.069 471.81 690.642 469.924 689.189 468.077 687.699 467.669 687.38 467.274 687.036 466.866 686.718 466.128 686.106 465.363 685.494 464.624 684.87 464.267 684.564 463.91 684.246 463.541 683.927 462.777 683.277 462.012 682.628 461.248 681.965 460.891 681.634 460.547 681.315 460.19 680.997 459.438 680.321 458.687 679.659 457.96 678.971 457.591 678.64 457.247 678.296 456.89 677.964 456.177 677.276 455.45 676.601 454.737 675.913 454.66 675.837 454.597 675.773 454.52 675.696 453.539 674.741 452.571 673.76 451.615 672.779 451.207 672.371 450.812 671.938 450.417 671.517 449.806 670.867 449.182 670.23 448.583 669.568 448.442 669.427 448.328 669.288 448.201 669.147 446.34 667.109 444.531 665.045 442.798 662.917 442.798 662.917 442.798 662.904 442.785 662.904 442.365 662.369 441.944 661.833 441.524 661.298 455.96 665.032 469.019 661.171 478.41 664.407L478.104 695.292C477.454 694.821 476.805 694.349 476.155 693.878 475.824 693.636 475.492 693.394 475.161 693.152ZM399.045 580.914C400.357 584.749 402.013 588.469 404.001 591.999L406.269 595.732 408.804 599.274C409.722 600.395 410.575 601.58 411.633 602.587 412.372 603.186 413.162 603.746 414.041 604.205 414.525 604.46 415.022 604.689 415.583 604.867 415.328 603.198 414.742 601.886 414.067 600.676 413.519 599.567 412.831 598.599 412.155 597.618 412.066 597.465 411.964 597.312 411.862 597.159L409.786 593.604 407.913 589.947C406.855 587.769 405.938 585.526 405.097 583.258 405.224 583.398 405.352 583.538 405.492 583.666 405.874 581.908 405.811 580.34 405.632 578.799 405.53 577.244 405.148 575.779 404.868 574.288L404.231 569.765 403.836 565.229C403.797 563.713 403.721 562.197 403.644 560.693L403.644 560.209 403.671 556.157 403.925 551.622 404.371 547.111C405.136 541.11 406.461 535.198 408.436 529.49L409.404 526.878C421.483 511.525 437.843 504.402 437.843 504.402 415.877 500.249 397.644 509.002 397.644 509.002 397.465 507.702 397.338 506.39 397.249 505.052 397.758 503.689 398.243 502.326 398.701 500.949L400.651 495.585C403.301 488.45 406.295 481.43 409.531 474.537 411.188 471.109 412.882 467.695 414.59 464.293L417.265 459.247C418.195 457.578 419.126 455.922 420.017 454.227L422.846 449.258 425.789 444.34C426.63 443.015 427.484 441.69 428.248 440.314 429.357 438.351 430.287 436.249 430.797 433.828 430.771 433.841 430.758 433.854 430.733 433.866 428.949 434.924 427.509 436.249 426.197 437.663 424.898 439.129 423.84 440.747 422.693 442.314L419.419 447.117 416.246 451.985C415.214 453.641 414.22 455.297 413.214 456.966L410.334 462.025 407.582 467.147 404.983 472.371C402.562 477.365 400.332 482.449 398.268 487.609 403.862 452.367 428.032 412.245 428.032 412.245 420.107 414.691 411.774 425.088 405.837 434.019L407.48 431.076 409.697 427.254 412.029 423.495C412.857 422.259 413.672 421.036 414.462 419.787L416.972 416.118 419.584 412.525C420.489 411.353 421.457 410.244 422.222 408.932 423.012 407.658 423.7 406.282 424.057 404.574 422.413 405.097 421.101 405.95 419.89 406.906 418.718 407.9 417.75 409.072 416.718 410.18L413.749 413.659 410.895 417.226C409.965 418.424 409.073 419.673 408.181 420.896L405.62 424.68 403.174 428.553 400.893 432.529C399.912 434.3 398.982 436.096 398.09 437.906 400.077 416.717 410.742 368.121 466.345 359.878 516.151 352.513 554.833 406.524 573.741 439.995 579.475 450.15 588.521 457.807 599.135 461.923L599.135 510.837C595.236 509.792 591.337 508.76 587.438 507.715 586.967 507.588 586.457 507.588 585.96 507.779L585.934 507.779C583.628 508.62 581.526 509.996 579.767 511.665 578.009 510.735 576.136 510.531 574.314 510.034 571.753 509.435 569.179 508.9 566.606 508.441 561.433 507.549 556.247 506.823 551.061 506.046L550.972 506.02C550.679 505.982 550.361 506.007 550.055 506.096 549.048 506.389 548.462 506.682 547.736 507.026 547.035 507.357 546.423 507.765 545.761 508.147L543.964 509.447C543.404 509.918 542.869 510.415 542.321 510.9 541.926 511.295 541.556 511.702 541.174 512.097 540.741 511.893 540.308 511.702 539.874 511.575 544.041 502.656 549.532 496.043 549.532 496.043L536.498 498.732C536.498 498.732 536.498 498.732 535.695 483.391 535.02 470.624 524.738 449.359 521.31 442.593 521.272 440.134 521.196 437.663 521.03 435.153 520.979 434.248 520.865 433.28 520.763 432.324 520.635 431.343 520.431 430.183 520.113 429.292 519.82 428.349 519.514 427.393 519.119 426.539 518.737 425.647 518.367 424.768 517.934 423.94 516.24 420.564 514.341 417.378 512.213 414.371 511.589 413.467 510.926 412.588 510.264 411.696 508.76 409.632 507.232 407.593 505.639 405.605 504.479 404.178 503.256 402.828 501.918 401.566 500.606 400.305 499.192 399.107 497.574 398.101 499.791 403.376 503.04 407.759 506.034 412.282 506.977 413.709 507.881 415.149 508.722 416.627 510.531 419.685 512.29 422.768 513.679 425.928 514.061 426.705 514.341 427.495 514.647 428.298 514.978 429.088 515.182 429.865 515.424 430.642 515.704 431.47 515.768 432.107 515.87 432.91 515.921 433.407 515.959 433.891 515.998 434.388 514.966 432.222 513.704 430.183 512.264 428.272L510.952 426.629 509.525 425.061C509.028 424.564 508.582 424.017 507.945 423.647 507.283 423.303 506.518 423.061 505.435 423.163 505.091 425.316 505.868 426.297 506.607 427.368 507.295 428.476 507.945 429.585 508.582 430.693 509.831 432.936 510.927 435.242 511.933 437.586 512.901 439.93 513.73 442.339 514.328 444.81L514.749 446.671C514.864 447.295 515.004 447.919 515.208 448.531 515.361 449.155 515.615 449.767 515.896 450.378 516.023 450.633 516.087 450.888 516.253 451.143 516.226 453.079 516.202 455.016 516.176 456.94 516.15 458.1 516.125 459.259 516.1 460.418 499.281 456.099 476.666 462.725 476.666 462.725 487.559 467.337 514.125 508.555 514.125 508.555 488.311 508.033 457.859 558.947 457.859 558.947 457.859 558.947 457.859 558.947 480.118 554.653 497.281 551.328 508.175 553.124 512.277 554.131 512.163 556.195 512.061 558.272 511.959 560.348 510.685 560.195 509.423 560.056 508.149 559.966 503.944 559.661 499.714 559.813 495.548 560.323 491.382 560.833 487.266 561.712 483.265 562.999 479.277 564.247 475.417 566.197 472.512 569.395 476.742 568.656 480.462 567.496 484.285 566.426 488.107 565.394 492.019 564.744 495.956 564.451 499.243 564.184 502.556 564.222 505.83 564.438 504.543 564.795 503.256 565.177 501.995 565.598 496.236 567.471 490.706 570.032 485.495 573.115 480.309 576.224 475.391 579.817 471.046 584.034 469.976 585.104 468.944 586.2 467.912 587.309 466.944 588.481 465.988 589.653 465.071 590.851 464.204 592.074 463.363 593.335 462.523 594.584 461.809 595.922 461.236 597.374 461.274 599.171 463.019 598.585 464.179 597.655 465.173 596.61 466.192 595.578 467.199 594.559 468.18 593.514 469.224 592.533 470.244 591.539 471.263 590.532 472.333 589.589 473.378 588.621 474.397 587.64 478.653 583.856 483.189 580.39 488.107 577.498 489.572 576.619 491.089 575.816 492.617 575.039 491.585 575.994 490.592 576.988 489.649 578.033 487.865 579.995 486.234 582.11 484.807 584.34 483.355 586.519 481.991 588.889 482.361 591.947 485.024 590.469 486.323 588.456 487.827 586.506 489.368 584.595 491.038 582.786 492.809 581.104 496.338 577.753 500.313 574.899 504.569 572.605 508.837 570.35 513.45 568.706 518.189 567.789 518.533 567.726 518.865 567.674 519.196 567.611L529.618 567.496C534.651 567.42 539.684 567.776 544.666 568.49 549.66 569.19 554.591 570.299 559.407 571.79L572.582 576.058C572.735 576.326 572.951 576.568 573.206 576.746L573.232 576.772C585.782 585.857 598.524 594.686 611.52 603.159 613.253 604.281 614.973 605.427 616.706 606.536 629.663 614.818 642.863 622.73 656.484 629.929 657.057 630.451 657.618 630.961 658.191 631.471 659.644 632.745 661.096 634.044 662.727 635.115 663.53 635.65 664.396 636.108 665.288 636.529 666.18 636.886 666.868 637.561 668.588 636.758 668.996 637.14 669.416 637.523 669.875 637.854 670.448 638.274 671.073 638.606 671.697 638.924 669.786 639.765 667.977 640.772 666.04 641.574 662.561 643.307 658.905 644.67 655.363 646.225 648.151 649.104 640.799 651.602 633.307 653.717 626.147 655.666 618.859 657.208 611.52 658.469 611.163 658.52 610.832 658.584 610.475 658.648 602.767 659.884 595.007 660.737 587.209 661.336 571.614 662.419 555.93 662.572 540.271 661.718 532.447 661.336 524.624 660.737 516.827 659.884 514.151 659.578 508.8 658.954 508.8 658.954 503.678 658.393 498.53 657.96 493.242 658.036 498.224 660.215 503.423 661.476 508.672 662.394 511.233 662.84 513.794 663.222 516.368 663.566 516.979 663.642 517.591 663.719 518.203 663.795 514.278 663.757 511.017 663.706 508.621 663.668 505.767 663.617 504.149 663.591 504.149 663.591 504.149 663.591 505.716 664.241 508.557 665.35 516.584 668.509 534.919 675.453 557.573 682.321 571.869 686.64 585.782 689.163 599.135 690.323L599.135 726.508C593.555 726.126 587.987 725.578 582.444 724.839 571.257 723.373 560.211 720.953 549.368 717.869 538.525 714.748 527.911 710.785 517.706 705.956 514.138 704.274 510.647 702.44 507.181 700.579 505.678 699.777 504.187 698.961 502.684 698.146 499.001 696.107 495.345 694.03 491.675 691.915L492.057 653.042C430.211 655.641 429.88 605.16 429.905 602.535 429.905 602.522 429.905 602.535 429.905 602.522 429.905 602.471 429.905 602.42 429.905 602.42 423.828 616.69 430.364 640.16 430.364 640.16 430.364 640.16 428.211 638.134 425 634.286 417.597 625.444 404.563 606.931 399.046 580.913ZM385.042 335.236C385.042 335.236 386.367 334.255 388.877 332.51 403.198 322.559 456.189 287.673 522.113 267.707 516.774 285.698 509.575 309.257 502.899 330.866 501.383 335.759 501.255 340.97 502.555 345.939L507.435 349.685C498.07 345.977 488.132 343.862 477.633 343.862 473.849 343.862 470.026 344.142 466.255 344.716 431.739 349.901 406.753 369.778 394.025 402.192 391.196 409.403 389.297 416.475 388.023 422.833 385.093 373.753 385.042 336.663 385.042 335.274 385.042 335.248 385.042 335.236 385.042 335.236ZM542.142 242.722C543.047 238.797 546.754 232.732 552.131 225.878 566.72 207.25 593.744 182.57 611.518 177.652 629.28 182.57 656.317 207.25 670.906 225.878 676.282 232.732 679.977 238.797 680.895 242.722 681.048 243.384 681.251 244.212 681.494 245.155 682.564 249.296 684.437 255.883 686.743 263.707 693.725 287.507 704.555 322.673 708.238 334.548 709.066 337.224 709.117 340.078 708.416 342.792 708.047 343.085 707.677 343.378 707.307 343.671 707.027 342.715 706.721 341.772 706.428 340.817 705.6 338.167 704.708 335.516 703.804 332.892 703.332 331.541 702.874 330.203 702.377 328.866 700.95 324.903 699.331 321.017 697.586 317.169 696.719 315.258 695.802 313.359 694.872 311.474 694.375 310.544 693.98 309.575 693.33 308.709 692.655 307.855 691.865 307.052 690.642 306.454 689.928 309.066 690.706 310.99 691.432 312.926L693.496 318.825 697.624 330.56C698.733 333.758 699.816 336.956 700.873 340.18 701.102 340.906 701.345 341.632 701.587 342.359 702.096 343.913 702.542 345.467 703.077 347.022 701.982 347.901 700.899 348.793 699.816 349.698 699.739 349.277 699.663 348.844 699.586 348.423 699.179 346.385 698.631 344.372 697.968 342.384 697.955 342.346 697.942 342.308 697.917 342.257 697.573 341.237 697.204 340.243 696.809 339.25 696.579 338.765 696.452 338.256 696.07 337.81 695.675 337.377 695.127 336.982 694.146 336.74 692.808 338.218 693.025 339.211 693.203 340.231L693.636 343.289C693.738 344.015 693.865 344.716 693.98 345.442 694.184 346.741 694.375 348.054 694.604 349.353 694.846 350.755 695.063 352.169 695.28 353.583 694.503 354.259 693.725 354.96 692.961 355.66 692.655 354.399 692.273 353.163 691.789 351.965 691.457 351.15 691.088 350.347 690.667 349.57 690.451 349.201 690.311 348.818 689.967 348.5 689.954 348.487 689.941 348.474 689.916 348.462 689.508 348.156 688.973 347.901 688.005 347.863 686.82 349.201 686.96 349.94 687.125 350.679 687.139 350.717 687.139 350.768 687.152 350.806L687.547 353.176 688.235 357.839C688.324 358.489 688.4 359.139 688.464 359.801 687.062 361.127 685.661 362.464 684.285 363.828 684.259 363.675 684.247 363.509 684.234 363.356 684.005 361.866 683.635 360.375 683.151 358.935 682.896 358.222 682.628 357.508 682.31 356.82 682.144 356.476 682.068 356.106 681.724 355.801 681.596 355.699 681.444 355.61 681.265 355.521 680.946 355.355 680.526 355.228 679.953 355.151 678.5 356.31 678.615 356.986 678.691 357.699 678.704 357.763 678.704 357.827 678.704 357.89 678.743 358.553 678.781 359.203 678.832 359.84 678.934 361.241 679.049 362.643 679.201 364.032 679.354 365.421 679.507 366.797 679.596 368.198 679.609 368.313 679.609 368.427 679.622 368.542 667.149 381.526 656.102 395.834 646.852 411.353 635.958 429.624 622.771 442.862 617.318 447.959 615.699 449.462 614.757 450.265 614.757 450.265 614.757 450.265 614.234 449.883 613.291 449.156 612.807 448.8 612.208 448.328 611.52 447.78 604.551 442.238 587.732 427.738 575.208 407.9 563.677 389.629 549.547 373.18 533.607 358.629 533.174 356.807 532.779 354.985 532.422 353.138 531.925 350.309 531.416 347.481 530.995 344.627L530.396 340.32C530.256 338.88 530.18 337.453 528.473 335.975 527.606 336.702 527.198 337.453 526.931 338.205 526.702 338.957 526.74 339.709 526.676 340.46L526.6 342.728 526.613 344.996C526.664 347.685 526.893 350.386 527.314 353.061 526.027 351.953 524.74 350.87 523.44 349.8 523.224 348.564 523.032 347.341 522.905 346.092 522.574 342.461 522.548 338.804 522.943 335.16L523.313 332.433 523.822 329.719C524.039 328.815 524.345 327.948 524.383 326.993 524.485 326.037 524.459 325.031 524.026 323.782 522.867 324.317 522.115 325.094 521.491 325.922 520.93 326.776 520.637 327.732 520.242 328.662L519.312 331.529 518.598 334.472C517.859 338.014 517.605 341.658 517.821 345.277 517.108 344.729 516.394 344.168 515.681 343.607L514.623 342.792C513.91 340.078 513.973 337.224 514.802 334.548 518.484 322.673 529.314 287.508 536.296 263.707 538.59 255.884 540.475 249.296 541.546 245.155 541.788 244.213 541.992 243.384 542.144 242.722ZM545.34 564.07C542.486 563.598 539.607 563.28 536.714 563.089L536.319 559.05C536.46 559.126 536.599 559.228 536.74 559.304 538.409 560.26 540.205 560.923 542.002 561.56 545.608 562.796 549.328 563.738 553.112 564.248 554.985 564.528 556.909 564.707 558.782 564.758L564.197 564.898C565.93 564.987 567.612 565.153 569.23 565.535 569.803 565.675 570.351 565.854 570.925 566.006 571.141 567.879 571.396 569.765 571.676 571.638L560.681 567.841C555.686 566.172 550.551 564.911 545.34 564.07ZM571.205 530.038C569.638 529.426 568.071 528.84 566.478 528.28 563.191 527.158 559.865 526.177 556.476 525.413 553.112 524.597 549.698 523.948 546.27 523.374 546.155 523.361 546.028 523.336 545.901 523.323 544.321 523.081 542.728 522.788 541.11 522.737 540.817 522.724 540.498 522.737 540.193 522.75 540.588 521.884 541.059 521.081 541.518 520.253 541.875 519.603 542.269 518.979 542.677 518.38 542.792 518.406 542.906 518.444 543.021 518.482 543.747 518.686 544.474 518.877 545.213 518.991 546.665 519.221 548.13 519.233 549.583 519.348 552.513 519.552 555.418 519.87 558.323 520.227 561.203 520.622 564.083 521.055 566.949 521.54 568.376 521.807 569.816 522.049 571.23 522.368 571.855 522.495 572.466 522.661 573.116 522.724 572.836 523.553 572.568 524.381 572.339 525.222 571.88 526.815 571.511 528.433 571.205 530.038ZM569.867 551.953C569.651 551.902 569.421 551.851 569.205 551.8 567.421 551.354 565.624 550.921 563.828 550.513 560.235 549.698 556.642 548.933 553.01 548.296 549.405 547.621 545.761 546.996 542.155 546.372 541.556 546.27 540.995 546.143 540.422 546.015 539.326 545.786 538.269 545.531 537.275 545.264 536.778 545.123 536.294 544.983 535.81 544.83L535.899 541.823C535.899 541.81 535.899 541.81 535.899 541.81 535.975 540.549 536.166 539.3 536.294 538.052 536.638 538.205 536.994 538.357 537.351 538.485 537.67 538.612 538.001 538.727 538.32 538.829 539.861 539.3 541.454 539.504 543.034 539.785 546.194 540.294 549.366 540.753 552.552 541.084 555.724 541.466 558.935 541.645 562.133 541.708 563.738 541.735 565.344 541.735 566.936 541.695 567.739 541.657 568.542 541.708 569.345 541.504 569.536 541.441 569.74 541.377 569.943 541.3 569.803 544.027 569.765 546.741 569.803 549.442 569.816 550.283 569.841 551.111 569.867 551.952ZM536.128 554.208C536.065 554.195 536.013 554.182 535.95 554.17 535.886 552.73 535.835 551.278 535.771 549.838 537.606 550.692 539.492 551.036 541.263 551.38 544.907 552.029 548.513 552.679 552.144 553.265 555.762 553.902 559.419 554.399 563.076 554.858 564.898 555.075 566.733 555.278 568.567 555.469 569.052 555.533 569.536 555.597 570.033 555.622 570.071 556.272 570.096 556.922 570.134 557.572 570.249 559.075 570.364 560.566 570.504 562.044 570.466 562.031 570.415 562.018 570.364 561.993 568.503 561.254 566.541 560.808 564.643 560.515 562.744 560.222 560.884 560.069 559.1 559.904 557.317 559.738 555.597 559.534 553.851 559.267 550.398 558.706 546.971 557.878 543.658 556.744 541.989 556.196 540.383 555.495 538.714 554.935 537.873 554.654 537.007 554.438 536.128 554.208ZM545.429 528.394C548.768 528.968 552.068 529.63 555.367 530.331L565.268 532.522 570.224 533.656C570.351 533.682 570.479 533.72 570.606 533.745 570.377 535.389 570.224 537.045 570.084 538.676 569.115 538.179 568.134 538.09 567.153 537.975L562.477 537.313C559.356 536.893 556.259 536.446 553.138 536.077 550.042 535.657 546.933 535.249 543.837 534.752 542.359 534.535 540.893 534.242 539.39 534.128 539.326 534.128 539.25 534.115 539.173 534.115 538.409 534.051 537.619 534.076 536.816 534.128L537.517 530.56C537.823 529.35 538.218 528.177 538.562 526.98 538.562 526.954 538.575 526.929 538.575 526.903 539.199 527.133 539.823 527.337 540.461 527.49 541.199 527.681 541.964 527.821 542.716 527.948 543.62 528.101 544.525 528.241 545.43 528.394ZM576.263 515.997C575.499 517.207 574.836 518.469 574.276 519.743 573.677 519.322 573.014 519.055 572.352 518.826 570.925 518.201 569.459 517.73 567.994 517.258 565.051 516.379 562.057 515.653 559.024 515.232 556.005 514.774 552.959 514.468 549.927 514.277 548.729 514.213 547.544 514.111 546.347 514.149 546.614 513.907 546.882 513.665 547.149 513.436L548.538 512.417C549.022 512.149 549.507 511.818 550.003 511.588 550.296 511.435 550.653 511.283 550.934 511.168 552.998 511.461 555.074 511.779 557.139 512.073 560.056 512.506 562.974 512.913 565.892 513.27 568.491 513.576 571.116 513.805 573.74 513.971 575.015 514.009 576.263 514.175 577.537 514.162 577.091 514.761 576.658 515.372 576.263 515.997ZM537.963 516.252C537.925 516.315 537.887 516.392 537.835 516.468 537.861 516.392 537.886 516.315 537.924 516.239 537.938 516.239 537.951 516.252 537.963 516.252ZM611.518 732.064C613.073 732.09 614.627 732.115 616.182 732.115 639.18 732.088 662.254 729.133 684.386 722.622 695.318 719.373 706.033 715.347 716.226 710.187 716.341 710.123 716.468 710.072 716.583 710.008 718.099 709.244 719.603 708.428 721.094 707.6 721.055 707.919 721.017 708.225 720.979 708.543 719.552 709.435 717.972 710.391 716.277 711.397 716.277 711.397 667.669 742.664 611.518 742.664 555.367 742.664 506.759 711.397 506.759 711.397 496.936 705.613 491.585 701.37 491.585 701.37L491.661 693.496C492.476 694.235 493.304 694.948 494.145 695.636 496.362 697.471 498.694 699.166 501.089 700.758 503.026 702.058 505.014 703.255 507.04 704.428 509.996 706.148 513.015 707.753 516.086 709.282 526.381 714.417 537.109 718.672 548.105 722.074 568.631 728.369 590.062 731.656 611.518 732.064ZM726.623 704.377C726.84 704.249 727.056 704.109 727.273 703.982L727.197 704.453C726.993 704.606 726.802 704.734 726.572 704.886 726.599 704.721 726.599 704.555 726.623 704.377ZM628.069 690.807C664.981 688.896 695.547 677.735 714.621 668.765 721.845 665.363 727.413 662.28 731.057 660.126L731.172 672.498 730.408 669.657C730.051 668.561 729.796 667.453 729.274 666.408 728.688 665.388 727.987 664.407 726.84 663.592 725.859 666.229 726.356 668.332 726.776 670.485L727.261 673.734 727.668 676.996C728.152 681.341 728.344 685.698 728.369 690.043 728.343 692.986 728.191 695.929 727.91 698.847 727.592 699.026 727.273 699.204 726.955 699.37 727.108 696.184 727.006 692.999 726.713 689.826L726.433 687.291 726.05 684.781C725.885 683.94 725.821 683.099 725.477 682.296 725.12 681.493 724.611 680.703 723.642 679.99 722.164 681.863 722.279 683.468 722.343 685.099L722.304 689.992C722.241 693.254 722.088 696.49 721.909 699.714 721.846 700.542 721.756 701.357 721.68 702.185 719.82 703.141 717.921 704.071 716.023 704.976 715.501 705.23 714.991 705.473 714.469 705.715 704.301 710.531 693.751 714.532 682.959 717.755 665.134 723.005 646.659 725.91 628.07 726.802ZM825.19 574.288C825.062 573.256 824.922 572.224 824.757 571.192L823.597 565.102 821.966 559.126 820.412 554.705 819.915 553.278C819.1 551.38 818.284 549.481 817.43 547.608L814.5 542.155 811.187 536.944C809.939 535.3 808.766 533.605 807.378 532.089 805.861 530.675 804.243 529.35 802.307 528.381 802.944 530.509 803.874 532.28 804.931 533.962 805.861 535.72 807.008 537.326 808.078 538.969L810.945 544.104 813.43 549.43C814.118 551.265 814.844 553.087 815.557 554.896L817.341 560.49 818.45 565.064 818.717 566.185 819.775 571.944C820.883 579.627 821.023 587.463 820.042 595.146 819.979 595.324 819.915 595.503 819.851 595.681 819.915 593.795 819.902 591.897 819.838 589.998L819.494 584.558 818.768 579.168 817.723 573.817C817.532 573.052 817.328 572.288 817.124 571.523 816.869 570.542 816.614 569.549 816.347 568.555L814.601 563.42 812.537 558.4C811.734 556.782 811.021 555.113 810.053 553.584 808.97 552.106 807.785 550.691 806.192 549.557 806.256 551.558 806.702 553.278 807.275 554.934 807.746 556.616 808.473 558.196 809.11 559.801L810.766 564.72 812.104 569.714C812.435 571.409 812.818 573.091 813.187 574.773L814.002 579.869 814.397 583.768 814.525 585.004 814.792 590.151C814.958 597.019 814.372 603.912 812.97 610.639L812.499 612.563C807.403 622.285 801.949 629.637 798.038 634.287 794.827 638.135 792.674 640.161 792.674 640.161 792.674 640.161 799.031 617.316 793.362 603.007 793.26 603.249 793.158 603.491 793.056 603.733 792.483 610.537 788.202 642.008 757.571 651.042 757.584 651.029 757.598 651.016 757.622 651.004 759.495 649.73 761.241 648.137 762.286 646.149 760.617 647.615 758.693 648.583 756.743 649.411 754.781 650.214 752.755 650.787 750.704 651.246 746.588 652.125 742.346 652.482 738.09 652.393 729.91 652.227 721.794 650.583 713.818 648.43 713.474 648.341 713.117 648.252 712.773 648.15 698.248 643.971 684.156 638.148 670.497 631.42 668.752 629.471 667.172 627.356 665.719 625.177 664.292 622.948 662.942 620.68 661.719 618.322 661.12 617.137 660.546 615.927 659.986 614.717 659.476 613.468 659.056 612.232 657.055 611.315 656.393 612.194 656.189 612.984 656.112 613.748 656.074 614.5 656.304 615.188 656.444 615.902L657.004 617.991 657.68 620.068C658.444 622.221 659.4 624.324 660.546 626.324 660.19 626.146 659.846 625.967 659.502 625.789 657.463 623.89 655.501 621.928 653.679 619.915 651.271 617.188 649.054 614.36 647.308 611.251 646.429 609.709 645.665 608.104 645.04 606.435 644.454 604.74 644.085 603.122 642.25 601.364 641.447 602.37 641.167 603.428 641.078 604.46 641.014 605.505 641.256 606.486 641.46 607.48 641.893 609.455 642.543 611.378 643.358 613.226 644.187 615.086 645.168 616.844 646.276 618.513 638.134 613.888 630.107 609.034 622.182 604.014 622.144 603.938 622.093 603.848 622.068 603.759 621.673 602.931 621.29 602.116 620.819 601.364 620.373 600.599 619.927 599.835 619.43 599.121 618.946 598.395 618.513 597.631 618.054 596.892 616.27 593.885 614.818 590.725 613.709 587.463 612.664 584.227 611.913 580.901 611.518 577.487 611.505 577.436 611.505 577.385 611.492 577.346 611.301 575.601 611.199 573.855 611.148 572.097 611.148 571.727 611.161 571.371 611.161 571.014 611.148 569.6 611.02 568.185 609.887 566.529 609.007 567.217 608.498 567.982 608.128 568.784 608.077 568.886 608.027 568.975 607.988 569.077 607.631 569.995 607.593 570.95 607.427 571.88 607.313 572.823 607.249 573.779 607.16 574.734 607.109 575.677 607.122 576.645 607.096 577.601 607.135 581.436 607.708 585.322 608.906 589.005 609.594 591.234 610.498 593.388 611.518 595.477 611.518 595.477 611.518 595.477 611.518 595.49 611.925 596.331 612.359 597.146 612.817 597.975 612.384 597.682 611.951 597.414 611.518 597.121 599.846 589.464 588.367 581.487 577.027 573.295 576.148 568.033 575.523 562.605 575.154 557.228 575.001 555.1 574.912 552.96 574.848 550.819 574.759 547.239 574.772 543.659 575.001 540.116 575.32 535.351 575.957 530.586 577.269 526.139 577.511 525.324 577.766 524.508 578.046 523.718 579.792 518.877 582.735 514.557 587.016 512.697 595.171 514.838 603.338 516.94 611.518 519.017 617.277 520.482 623.036 521.947 628.808 523.374 643.052 526.929 657.336 530.306 671.669 533.491 678.843 535.071 686.029 536.6 693.266 537.989 696.872 538.689 700.503 539.327 704.16 539.9 705.255 540.066 706.339 540.219 707.434 540.371 707.804 540.448 708.186 540.512 708.555 540.588 708.708 540.626 708.874 540.639 709.04 540.626 709.116 540.626 709.18 540.613 709.256 540.6 711.244 540.829 713.283 541.008 715.385 541.033 722.469 541.033 729.617 542.371 736.612 544.18 743.632 545.977 750.551 548.321 757.431 550.946 754.335 548.933 751.048 547.225 747.709 545.646 744.359 544.078 740.918 542.715 737.402 541.505 730.521 539.224 723.31 537.606 715.882 537.466 715.716 537.466 715.55 537.453 715.385 537.453 713.869 537.414 712.301 537.274 710.734 537.083L710.556 533.77 718.213 514.238 713.359 516.888C713.448 516.672 713.537 516.455 713.639 516.238 715.538 512.352 718.353 508.823 721.564 505.727 722.367 504.975 723.182 504.223 724.023 503.497 726.622 501.191 729.375 498.961 732.114 496.629 733.923 495.088 735.733 493.495 737.453 491.8 738.306 490.934 739.198 490.119 739.886 489.087 740.561 488.042 741.109 486.882 741.237 485.417 738.408 486.054 736.777 487.545 734.981 489.01 734.65 489.265 734.305 489.52 733.961 489.775 732.471 490.921 730.942 492.055 729.387 493.164 727.54 494.514 725.654 495.865 723.794 497.292 733.872 483.315 746.97 467.082 756.144 462.725 756.144 462.725 717.933 456.494 707.562 468.407L707.307 467.719C707.281 466.993 707.243 466.28 707.218 465.553 707.485 465.197 707.638 464.814 707.867 464.458 708.339 463.629 708.798 462.827 709.167 461.986 709.575 461.158 709.944 460.317 710.276 459.45L711.384 456.94C712.505 454.583 713.779 452.29 715.168 450.086 715.729 449.194 716.302 448.314 716.901 447.435 719.029 444.454 721.322 441.574 723.832 438.873L725.756 436.873 727.757 434.936C728.496 434.286 729.235 433.662 729.872 432.859 730.101 432.566 730.318 432.248 730.509 431.891 738.663 428.642 746.69 427.916 746.69 427.916 746.69 427.916 725.272 417.977 714.289 417.302 714.952 416.206 715.614 415.123 716.289 414.028 716.646 413.467 717.029 412.919 717.372 412.359 718.647 410.358 719.921 408.383 721.22 406.408 722.94 403.886 724.686 401.426 725.463 398.101 722.303 399.464 720.265 401.809 718.277 404.166 716.264 406.51 714.327 408.944 712.48 411.441 712.442 411.505 712.391 411.581 712.34 411.645 708.759 416.627 705.459 421.864 703.217 427.992 702.975 428.807 702.707 429.585 702.491 430.438L702.249 431.776 702.108 433.012C701.93 434.643 701.854 436.198 701.803 437.765 701.688 440.899 701.675 443.982 701.714 447.053 701.765 453.22 701.956 459.361 702.185 465.49 702.287 468.114 702.389 470.739 702.516 473.364L702.516 507.141 680.678 528.088C680.079 528.508 679.48 528.954 678.932 529.464 678.55 529.82 678.206 530.228 677.875 530.649 676.116 530.254 674.358 529.859 672.6 529.438 658.342 526.1 644.148 522.494 629.942 518.888 629.318 518.735 628.693 518.57 628.069 518.404L628.069 460.1C636.873 455.717 644.327 448.799 649.296 439.994 668.204 406.523 706.887 352.513 756.692 359.877 796.968 365.84 813.659 392.979 820.564 415.544 820.399 415.251 820.246 414.945 820.08 414.652 817.812 410.677 815.251 406.892 812.397 403.325 809.556 399.77 806.511 396.368 803.16 393.285 799.834 390.176 796.292 387.322 792.572 384.723 788.89 382.098 784.953 379.69 780.213 379.078 783.296 382.684 786.889 385.054 790.368 387.704 793.808 390.38 797.057 393.298 800.089 396.419 803.109 399.541 805.988 402.803 808.588 406.281 811.174 409.759 813.557 413.378 815.685 417.137 819.915 424.692 823.125 432.821 825.151 441.23 825.177 441.358 825.215 441.485 825.228 441.612 825.47 445.473 825.381 447.779 825.381 447.779 825.381 447.779 809.492 416.729 795.005 412.244 795.005 412.244 810.129 437.344 819.214 465.286L818.309 463.387C817.341 461.616 816.372 459.845 815.366 458.087L812.091 453.003 808.511 448.123C807.224 446.569 805.988 444.964 804.561 443.549 803.02 442.224 801.389 440.975 799.439 440.096 800.115 442.173 801.096 443.893 802.179 445.524 803.185 447.219 804.396 448.735 805.53 450.315L808.69 455.195 811.544 460.253C812.397 461.999 813.276 463.719 814.156 465.439L816.487 470.752 818.513 476.18 820.284 481.684C822.437 489.112 823.813 496.744 824.285 504.453L824.425 508.568C820.373 506.861 804.179 500.809 785.195 504.402 785.195 504.402 812.436 516.264 822.539 542.332 825.483 549.939 826.973 558.743 825.916 568.822 825.712 570.682 825.457 572.491 825.19 574.288ZM772.084 296.235C772.084 296.235 772.097 296.235 772.097 296.235 774.607 297.484 777.079 298.732 779.474 299.968 782.176 301.357 784.788 302.733 787.336 304.096 789.272 305.141 791.171 306.173 793.018 307.193 820.858 322.571 837.995 335.236 837.995 335.236 837.995 335.236 837.995 372.81 835.001 422.833 833.74 416.475 831.841 409.403 829.013 402.192 816.284 369.778 791.298 349.901 756.769 344.716 753.011 344.142 749.188 343.862 745.404 343.862 734.931 343.862 725.031 345.964 715.692 349.647 716.15 349.29 716.596 348.92 717.055 348.564L720.482 345.939C721.782 340.97 721.654 335.759 720.138 330.866 713.462 309.257 706.263 285.698 700.912 267.707 727.248 275.683 751.52 286.029 772.084 296.235ZM847.933 321.794C844.366 319.169 779.066 271.479 695.369 248.672 694.26 244.722 693.458 241.715 693.037 239.919 692.362 236.988 690.807 233.522 688.616 229.726 675.505 207.059 638.415 172.16 614.844 165.637 613.761 165.331 612.64 165.178 611.518 165.178 610.397 165.178 609.276 165.331 608.193 165.637 584.622 172.16 547.532 207.059 534.421 229.726 532.217 233.522 530.675 236.988 530 239.919 529.579 241.715 528.776 244.722 527.668 248.672 443.97 271.491 378.671 319.169 375.104 321.794 370.848 324.954 368.325 329.936 368.325 335.236 368.325 341.772 368.58 452.367 384.367 547.047 384.43 557.546 384.647 566.006 385.106 570.415 387.565 594.025 395.821 613.175 403.963 626.91 406.88 634.886 410.053 642.238 413.468 648.799 459.922 737.823 602.345 765.943 608.384 767.102 609.416 767.294 610.474 767.395 611.518 767.395 612.563 767.395 613.621 767.294 614.653 767.102 620.692 765.943 763.114 737.823 809.569 648.799 813.009 642.187 816.195 634.771 819.138 626.732 827.267 613.022 835.472 593.935 837.931 570.415 838.39 566.006 838.606 557.546 838.67 547.047 854.457 452.367 854.711 341.772 854.711 335.236 854.711 329.936 852.189 324.954 847.933 321.794" fill="#0F0C0C" transform="matrix(1.00007 0 0 1 942.099 242.274)"/></g><path d="M35.9687-143.097C11.722-143.097 3.97528-132.764 3.97528-115.665L3.97528-97.9806C3.97528-86.4497 8.74053-77.3142 16.6911-70.9563L36.3637-56.049C42.1355-51.8698 43.1293-50.2771 43.1293-40.7467L43.1293-28.222C43.1293-22.8579 42.5304-21.6602 36.3637-21.6602 30.6046-21.6602 29.6108-23.2529 29.6108-28.222L29.6108-50.2771 3.97528-50.2771 3.97528-24.4505C3.97528-5.36408 15.0984 1.59266 36.1725 1.59266 58.0366 1.59266 68.7648-6.16679 68.7648-24.4505L68.7648-46.1107C68.7648-57.6289 65.3883-66.7771 57.0428-73.3389L34.9748-90.2338C31.2034-92.8076 29.6108-95.5979 29.6108-100.962L29.6108-113.487C29.6108-118.252 30.8084-119.845 36.3637-119.845 42.1355-119.845 43.1293-118.252 43.1293-113.487L43.1293-94.1964 68.7648-94.1964 68.7648-116.06C68.7648-131.77 61.0181-143.097 35.9687-143.097Z" fill="#26074F" transform="matrix(1.00007 0 0 1 1301.12 1198.97)"/><path d="M44.7219-141.11 44.7219-84.2709 30.9996-84.2709 30.9996-141.11 5.36408-141.11 5.36408 0 30.9996 0 30.9996-58.4316 44.7219-58.4316 44.7219 0 70.3574 0 70.3574-141.11Z" fill="#26074F" transform="matrix(1.00007 0 0 1 1378.82 1198.97)"/><path d="M46.7096 0 74.5238 0 56.2401-141.11 19.0737-141.11 0.993823 0 25.4444 0 27.6231-22.259 44.7219-22.259ZM35.9687-106.53 37.3575-106.53 42.9254-42.9254 29.6108-42.9254Z" fill="#26074F" transform="matrix(1.00007 0 0 1 1459.51 1198.97)"/><path d="M37.1664-141.11 5.36408-141.11 5.36408 0 37.1664 0C64.3945 0 69.3636-10.5371 69.3636-30.2096L69.3636-110.9C69.3636-129.974 61.6042-141.11 37.1664-141.11ZM30.9996-23.049 30.9996-117.857 36.3637-117.857C43.3204-117.857 44.5181-114.876 44.5181-109.906L44.5181-31.2034C44.5181-25.4444 43.3204-23.049 36.3637-23.049Z" fill="#26074F" transform="matrix(1.00007 0 0 1 1539.81 1198.97)"/><path d="M36.7714-142.894C13.5185-142.894 3.97528-132.56 3.97528-112.085L3.97528-28.8208C3.97528-8.54941 13.5185 1.98764 36.7714 1.98764 59.6165 1.98764 69.5547-8.54941 69.5547-28.8208L69.5547-112.085C69.5547-132.357 59.6165-142.894 36.7714-142.894ZM29.6108-30.9996 29.6108-109.906C29.6108-118.252 31.3945-119.042 36.9625-119.042 42.3266-119.042 43.9192-117.857 43.9192-109.906L43.9192-30.9996C43.9192-23.4567 42.5304-22.0552 36.7714-22.0552 31.2034-22.0552 29.6108-23.4567 29.6108-30.9996Z" fill="#26074F" transform="matrix(1.00007 0 0 1 1618.71 1198.97)"/><path d="M0.789962-141.11 21.2652 0 45.308 0 53.2586-57.0428 54.4563-73.135 55.8451-57.0428 63.9995 0 88.0423 0 108.314-141.11 81.2895-141.11 72.74-59.6165 61.808-141.11 47.2957-141.11 36.9625-59.6165 27.6231-141.11Z" fill="#26074F" transform="matrix(1.00007 0 0 1 1697.21 1198.97)"/><path d="M3.05791 0 3.05791-31.3945 9.63242-31.3945 9.63242-5.09652 26.5019-5.09652 26.5019 0Z" fill="#26074F" transform="matrix(1.00007 0 0 1 1456.49 1262.27)"/><path d="M33.5861-15.8502C33.5861-12.5884 32.9362-9.70886 31.6494-7.23705 30.3498-4.7525 28.5023-2.85405 26.0942-1.52896 23.6733-0.203861 20.8702 0.458687 17.6849 0.458687 12.754 0.458687 8.88068-0.981079 6.06486-3.87335 3.27451-6.79111 1.88571-10.7791 1.88571-15.8502 1.88571-20.8702 3.27451-24.7946 6.06486-27.6231 8.84246-30.4772 12.7413-31.9042 17.7359-31.9042 22.6922-31.9042 26.5656-30.4772 29.3559-27.6231 32.1718-24.7691 33.5861-20.8448 33.5861-15.8502ZM26.9096-15.8502C26.9096-19.2394 26.0942-21.8895 24.4633-23.8007 22.8579-25.7374 20.6154-26.7058 17.7359-26.7058 14.7799-26.7058 12.4992-25.7502 10.9065-23.8517 9.30114-21.9405 8.51118-19.2776 8.51118-15.8502 8.51118-12.41 9.32663-9.69612 10.9575-7.69574 12.5884-5.72084 14.8309-4.73976 17.6849-4.73976 20.6409-4.73976 22.9088-5.7081 24.5142-7.64478 26.1069-9.58145 26.9096-12.3081 26.9096-15.8502Z" fill="#26074F" transform="matrix(1.00007 0 0 1 1498.07 1262.27)"/><path d="M25.2787 0 22.4756-8.0525 10.4988-8.0525 7.69574 0 1.12123 0 12.5884-31.3945 20.3351-31.3945 31.7513 0ZM16.4618-26.6038 16.3598-26.0942C16.1814-25.5463 16.0031-24.9347 15.7992-24.2594 15.5953-23.5714 14.3212-19.8255 11.9768-12.9961L20.9977-12.9961 17.8888-22.017 16.9714-25.0239Z" fill="#26074F" transform="matrix(1.00007 0 0 1 1547.27 1262.27)"/><path d="M22.1699 0 8.51118-24.2085C8.77875-21.8641 8.91891-19.9783 8.91891-18.5513L8.91891 0 3.05791 0 3.05791-31.3945 10.5498-31.3945 24.4633-7.03319C24.183-9.27566 24.0556-11.3143 24.0556-13.149L24.0556-31.3945 29.9166-31.3945 29.9166 0Z" fill="#26074F" transform="matrix(1.00007 0 0 1 1593.94 1262.27)"/><path d="M28.6934-9.0718C28.6934-5.97567 27.5339-3.61853 25.2278-1.98764 22.9471-0.356756 19.5961 0.458687 15.1876 0.458687 11.1741 0.458687 8.01427-0.254826 5.7081-1.68185 3.42741-3.10888 1.96216-5.2749 1.32509-8.20539L7.69574-9.2247C8.10346-7.55559 8.93165-6.34516 10.193-5.60617 11.4417-4.85443 13.1745-4.48494 15.3915-4.48494 19.9783-4.48494 22.2718-5.87374 22.2718-8.66408 22.2718-9.54323 21.9915-10.2695 21.4563-10.8556 20.9467-11.4672 20.2077-11.9513 19.2648-12.3336 18.3092-12.7031 16.4745-13.1745 13.7606-13.7606 11.378-14.2957 9.73435-14.7289 8.81698-15.0347 7.8996-15.366 7.05868-15.761 6.31968-16.2069 5.56794-16.6784 4.94362-17.239 4.43397-17.8888 3.92432-18.5258 3.5166-19.2776 3.21081-20.1312 2.9305-20.9722 2.80308-21.966 2.80308-23.0872 2.80308-25.9413 3.84787-28.1073 5.96293-29.6108 8.10346-31.1397 11.2123-31.9042 15.2896-31.9042 19.1884-31.9042 22.1189-31.2926 24.0556-30.0695 26.0177-28.8463 27.2791-26.8204 27.827-24.0046L21.4563-23.1382C21.1505-24.4888 20.488-25.5081 19.4687-26.1961 18.4749-26.8714 17.0478-27.2154 15.1876-27.2154 11.1741-27.2154 9.17373-25.9668 9.17373-23.4949 9.17373-22.6795 9.37759-21.9915 9.78531-21.4563 10.2185-20.9467 10.8556-20.5007 11.671-20.1312 12.512-19.7872 14.2193-19.3285 16.7675-18.7552 19.7872-18.1436 21.9405-17.5575 23.2401-17.0224 24.527-16.4745 25.5463-15.8247 26.298-15.0857 27.0752-14.3722 27.6741-13.5058 28.0818-12.4865 28.4895-11.4926 28.6934-10.3587 28.6934-9.0718Z" fill="#26074F" transform="matrix(1.00007 0 0 1 1640.6 1262.27)"/></g></g></g></g></svg>